<?xml version="1.0" encoding="UTF-8" standalone="no"?>
<!-- Created with Inkscape (http://www.inkscape.org/) -->

<svg
   width="44.714199mm"
   height="67.832512mm"
   viewBox="0 0 44.714199 67.832512"
   version="1.1"
   id="svg5"
   xml:space="preserve"
   xmlns:inkscape="http://www.inkscape.org/namespaces/inkscape"
   xmlns:sodipodi="http://sodipodi.sourceforge.net/DTD/sodipodi-0.dtd"
   xmlns="http://www.w3.org/2000/svg"
   xmlns:svg="http://www.w3.org/2000/svg"><sodipodi:namedview
     id="namedview7"
     pagecolor="#505050"
     bordercolor="#eeeeee"
     borderopacity="1"
     inkscape:showpageshadow="0"
     inkscape:pageopacity="0"
     inkscape:pagecheckerboard="0"
     inkscape:deskcolor="#505050"
     inkscape:document-units="mm"
     showgrid="false" /><defs
     id="defs2" /><g
     inkscape:groupmode="layer"
     id="layer2"
     inkscape:label="Layer 2"
     transform="translate(-44.019551,-30.316608)"><path
       style="fill:#6f7c91;stroke-width:0.264583"
       d="m 65.111595,48.316062 -16.017769,49.671255 5.82465,-0.16179 13.914419,-42.228661 13.26724,42.390451 6.63362,0.1618 -17.15033,-49.99485 z"
       id="path331-6-3" /><path
       style="fill:#b7bec8;stroke-width:0.264583"
       d="m 86.006843,38.816216 c -5.56438,-4.342622 -9.33989,-8.211841 -18.35248,-8.49961 -10.475013,0.759276 -22.088503,7.508707 -23.634813,25.317406 0.968103,11.645176 7.505235,22.944094 25.473463,23.449324 7.28951,-0.54595 11.33203,-2.71842 16.68137,-9.16236 l -3.451828,-2.980322 c -4.11864,4.861623 -6.88978,6.547303 -13.63978,6.716493 -11.780092,-0.53211 -18.527998,-9.485971 -19.384525,-18.172243 0.439063,-7.791449 5.377659,-18.489422 18.243825,-18.889805 5.7298,-0.248474 10.56415,2.597524 14.89488,6.434537 z"
       id="path233-9-9"
       sodipodi:nodetypes="ccccccccccc"
       inkscape:export-filename="logo_cv.svg"
       inkscape:export-xdpi="96"
       inkscape:export-ydpi="96" /></g></svg>
